<?xml version="1.0" encoding="UTF-8" standalone="no"?>
<svg
   xmlns:dc="http://purl.org/dc/elements/1.1/"
   xmlns:cc="http://creativecommons.org/ns#"
   xmlns:rdf="http://www.w3.org/1999/02/22-rdf-syntax-ns#"
   xmlns:svg="http://www.w3.org/2000/svg"
   xmlns="http://www.w3.org/2000/svg"
   xmlns:sodipodi="http://sodipodi.sourceforge.net/DTD/sodipodi-0.dtd"
   xmlns:inkscape="http://www.inkscape.org/namespaces/inkscape"
   version="1.1"
   width="29.7002cm"
   height="21.0007cm"
   viewBox="0 0 116930 82680 "
   id="svg2"
   inkscape:version="0.48.5 r10040"
   sodipodi:docname="simple_headphones_dac-F.Cu.svg">
  <metadata
     id="metadata700">
    <rdf:RDF>
      <cc:Work
         rdf:about="">
        <dc:format>image/svg+xml</dc:format>
        <dc:type
           rdf:resource="http://purl.org/dc/dcmitype/StillImage" />
      </cc:Work>
    </rdf:RDF>
  </metadata>
  <defs
     id="defs698" />
  <sodipodi:namedview
     pagecolor="#ffffff"
     bordercolor="#666666"
     borderopacity="1"
     objecttolerance="10"
     gridtolerance="10"
     guidetolerance="10"
     inkscape:pageopacity="0"
     inkscape:pageshadow="2"
     inkscape:window-width="1916"
     inkscape:window-height="1039"
     id="namedview696"
     showgrid="false"
     inkscape:zoom="2.5372277"
     inkscape:cx="219.99827"
     inkscape:cy="611.00963"
     inkscape:window-x="1280"
     inkscape:window-y="39"
     inkscape:window-maximized="0"
     inkscape:current-layer="svg2" />
  <title
     id="title4">SVG Picture created as simple_headphones_dac-F.Cu.svg date 2016/08/03 12:33:20 </title>
  <desc
     id="desc6">Picture generated by PCBNEW </desc>
  <g
     style="fill:#000000; fill-opacity:1;stroke:#000000; stroke-opacity:1; stroke-linecap:round; stroke-linejoin:round; "
     transform="translate(0 0) scale(1 1)"
     id="g8" />
  <g
     style="fill:#000000; fill-opacity:0.0;  stroke:#000000; stroke-width:-0.000393701; stroke-opacity:1;  stroke-linecap:round; stroke-linejoin:round;"
     id="g10" />
  <g
     style="fill:#000000;fill-opacity:1;stroke:#000000;stroke-width:39.37009811;stroke-linecap:round;stroke-linejoin:round;stroke-opacity:1"
     id="g12"
     transform="matrix(0.78143738,0,0,0.65245441,-22395.599,-11288.069)">
    <rect
       x="32911.898"
       y="36556.301"
       width="36747.801"
       height="16375.2"
       rx="0"
       id="rect14" />
  </g>
  <g
     style="fill:#FFFFFF; fill-opacity:1.0;  stroke:#FFFFFF; stroke-width:39.3701; stroke-opacity:1;  stroke-linecap:round; stroke-linejoin:round;"
     id="g16" />
  <g
     style="fill:#ffffff;fill-opacity:1;stroke:#ffffff;stroke-width:0;stroke-linecap:round;stroke-linejoin:round;stroke-opacity:1"
     id="g18"
     transform="translate(-35033.899,-26406.801)">
    <polyline
       style="fill-rule:evenodd"
       points="59676,42462 59183,42462 59183,43053 59676,43053 59676,42462 "
       id="polyline20" />
    <polyline
       style="fill-rule:evenodd"
       points="59676,43446 59183,43446 59183,44037 59676,44037 59676,43446 "
       id="polyline22" />
    <polyline
       style="fill-rule:evenodd"
       points="60278,43165 60081,43165 60081,43401 60278,43401 60278,43165 "
       id="polyline24" />
    <polyline
       style="fill-rule:evenodd"
       points="60278,43598 60081,43598 60081,43834 60278,43834 60278,43598 "
       id="polyline26" />
    <polyline
       style="fill-rule:evenodd"
       points="56142,44503 56142,44996 56733,44996 56733,44503 56142,44503 "
       id="polyline28" />
    <polyline
       style="fill-rule:evenodd"
       points="57126,44503 57126,44996 57717,44996 57717,44503 57126,44503 "
       id="polyline30" />
    <polyline
       style="fill-rule:evenodd"
       points="56142,41503 56142,41996 56733,41996 56733,41503 56142,41503 "
       id="polyline32" />
    <polyline
       style="fill-rule:evenodd"
       points="57126,41503 57126,41996 57717,41996 57717,41503 57126,41503 "
       id="polyline34" />
    <polyline
       style="fill-rule:evenodd"
       points="53926,41462 53433,41462 53433,42053 53926,42053 53926,41462 "
       id="polyline36" />
    <polyline
       style="fill-rule:evenodd"
       points="53926,42446 53433,42446 53433,43037 53926,43037 53926,42446 "
       id="polyline38" />
    <polyline
       style="fill-rule:evenodd"
       points="53433,45037 53926,45037 53926,44446 53433,44446 53433,45037 "
       id="polyline40" />
    <polyline
       style="fill-rule:evenodd"
       points="53433,44053 53926,44053 53926,43462 53433,43462 53433,44053 "
       id="polyline42" />
    <circle
       cx="49045.699"
       cy="45800"
       r="255.90601"
       id="circle44"
       d="m 49301.605,45800 c 0,141.333 -114.573,255.906 -255.906,255.906 -141.333,0 -255.906,-114.573 -255.906,-255.906 0,-141.333 114.573,-255.906 255.906,-255.906 141.333,0 255.906,114.573 255.906,255.906 z"
       sodipodi:cx="49045.699"
       sodipodi:cy="45800"
       sodipodi:rx="255.90601"
       sodipodi:ry="255.90601" />
  </g>
  <g
     style="fill:#FFFFFF; fill-opacity:1.0;  stroke:#FFFFFF; stroke-width:39.3701; stroke-opacity:1;  stroke-linecap:round; stroke-linejoin:round;"
     id="g46" />
  <g
     style="fill:#ffffff;fill-opacity:1;stroke:#ffffff;stroke-width:0;stroke-linecap:round;stroke-linejoin:round;stroke-opacity:1"
     id="g48"
     transform="translate(-35033.899,-26406.801)">
    <polyline
       style="fill-rule:evenodd"
       points="50285,46055 50285,45544 49774,45544 49774,46055 50285,46055 "
       id="polyline50" />
    <circle
       cx="49045.699"
       cy="40700"
       r="255.90601"
       id="circle52"
       d="m 49301.605,40700 c 0,141.333 -114.573,255.906 -255.906,255.906 -141.333,0 -255.906,-114.573 -255.906,-255.906 0,-141.333 114.573,-255.906 255.906,-255.906 141.333,0 255.906,114.573 255.906,255.906 z"
       sodipodi:cx="49045.699"
       sodipodi:cy="40700"
       sodipodi:rx="255.90601"
       sodipodi:ry="255.90601" />
  </g>
  <g
     style="fill:#FFFFFF; fill-opacity:1.0;  stroke:#FFFFFF; stroke-width:39.3701; stroke-opacity:1;  stroke-linecap:round; stroke-linejoin:round;"
     id="g54" />
  <g
     style="fill:#ffffff;fill-opacity:1;stroke:#ffffff;stroke-width:0;stroke-linecap:round;stroke-linejoin:round;stroke-opacity:1"
     id="g56"
     transform="translate(-35033.899,-26406.801)">
    <polyline
       style="fill-rule:evenodd"
       points="50285,40955 50285,40444 49774,40444 49774,40955 50285,40955 "
       id="polyline58" />
    <polyline
       style="fill-rule:evenodd"
       points="47285,45144 46774,45144 46774,45655 47285,45655 47285,45144 "
       id="polyline60" />
    <circle
       cx="47030"
       cy="46187.398"
       r="255.90601"
       id="circle62"
       d="m 47285.906,46187.398 c 0,141.333 -114.573,255.906 -255.906,255.906 -141.333,0 -255.906,-114.573 -255.906,-255.906 0,-141.333 114.573,-255.906 255.906,-255.906 141.333,0 255.906,114.573 255.906,255.906 z"
       sodipodi:cx="47030"
       sodipodi:cy="46187.398"
       sodipodi:rx="255.90601"
       sodipodi:ry="255.90601" />
  </g>
  <g
     style="fill:#FFFFFF; fill-opacity:1.0;  stroke:#FFFFFF; stroke-width:39.3701; stroke-opacity:1;  stroke-linecap:round; stroke-linejoin:round;"
     id="g64" />
  <g
     style="fill:#ffffff;fill-opacity:1;stroke:#ffffff;stroke-width:0;stroke-linecap:round;stroke-linejoin:round;stroke-opacity:1"
     id="g66"
     transform="translate(-35033.899,-26406.801)">
    <circle
       cx="45045.699"
       cy="43700"
       r="255.90601"
       id="circle68"
       d="m 45301.605,43700 c 0,141.333 -114.573,255.906 -255.906,255.906 -141.333,0 -255.906,-114.573 -255.906,-255.906 0,-141.333 114.573,-255.906 255.906,-255.906 141.333,0 255.906,114.573 255.906,255.906 z"
       sodipodi:cx="45045.699"
       sodipodi:cy="43700"
       sodipodi:rx="255.90601"
       sodipodi:ry="255.90601" />
  </g>
  <g
     style="fill:#FFFFFF; fill-opacity:1.0;  stroke:#FFFFFF; stroke-width:39.3701; stroke-opacity:1;  stroke-linecap:round; stroke-linejoin:round;"
     id="g70" />
  <g
     style="fill:#ffffff;fill-opacity:1;stroke:#ffffff;stroke-width:0;stroke-linecap:round;stroke-linejoin:round;stroke-opacity:1"
     id="g72"
     transform="translate(-35033.899,-26406.801)">
    <polyline
       style="fill-rule:evenodd"
       points="46285,43955 46285,43444 45774,43444 45774,43955 46285,43955 "
       id="polyline74" />
    <circle
       cx="46145.699"
       cy="41100"
       r="255.90601"
       id="circle76"
       d="m 46401.605,41100 c 0,141.333 -114.573,255.906 -255.906,255.906 -141.333,0 -255.906,-114.573 -255.906,-255.906 0,-141.333 114.573,-255.906 255.906,-255.906 141.333,0 255.906,114.573 255.906,255.906 z"
       sodipodi:cx="46145.699"
       sodipodi:cy="41100"
       sodipodi:rx="255.90601"
       sodipodi:ry="255.90601" />
  </g>
  <g
     style="fill:#FFFFFF; fill-opacity:1.0;  stroke:#FFFFFF; stroke-width:39.3701; stroke-opacity:1;  stroke-linecap:round; stroke-linejoin:round;"
     id="g78" />
  <g
     style="fill:#ffffff;fill-opacity:1;stroke:#ffffff;stroke-width:0;stroke-linecap:round;stroke-linejoin:round;stroke-opacity:1"
     id="g80"
     transform="translate(-35033.899,-26406.801)">
    <polyline
       style="fill-rule:evenodd"
       points="47385,41355 47385,40844 46874,40844 46874,41355 47385,41355 "
       id="polyline82" />
    <polyline
       style="fill-rule:evenodd"
       points="43631,43034 43828,43034 43828,42798 43631,42798 43631,43034 "
       id="polyline84" />
    <polyline
       style="fill-rule:evenodd"
       points="43631,42601 43828,42601 43828,42365 43631,42365 43631,42601 "
       id="polyline86" />
    <polyline
       style="fill-rule:evenodd"
       points="43928,44065 43731,44065 43731,44301 43928,44301 43928,44065 "
       id="polyline88" />
    <polyline
       style="fill-rule:evenodd"
       points="43928,44498 43731,44498 43731,44734 43928,44734 43928,44498 "
       id="polyline90" />
    <polyline
       style="fill-rule:evenodd"
       points="65280,45910 65280,46590 66080,46590 66080,45910 65280,45910 "
       id="polyline92" />
  </g>
  <g
     style="fill:#FFFFFF; fill-opacity:1.0;  stroke:#FFFFFF; stroke-width:680; stroke-opacity:1;  stroke-linecap:round; stroke-linejoin:round;"
     id="g94" />
  <g
     style="fill:#ffffff;fill-opacity:0;stroke:#ffffff;stroke-width:680;stroke-linecap:round;stroke-linejoin:round;stroke-opacity:1"
     id="g96"
     transform="translate(-35033.899,-26406.801)">
    <path
       d="m 65620,45250 120,0"
       id="path98"
       inkscape:connector-curvature="0" />
    <path
       d="m 65620,44250 120,0"
       id="path100"
       inkscape:connector-curvature="0" />
    <path
       d="m 65620,43250 120,0"
       id="path102"
       inkscape:connector-curvature="0" />
    <path
       d="m 65620,42250 120,0"
       id="path104"
       inkscape:connector-curvature="0" />
    <path
       d="m 65620,41250 120,0"
       id="path106"
       inkscape:connector-curvature="0" />
    <path
       d="m 65620,40250 120,0"
       id="path108"
       inkscape:connector-curvature="0" />
  </g>
  <g
     style="fill:#FFFFFF; fill-opacity:0.0;  stroke:#FFFFFF; stroke-width:0; stroke-opacity:1;  stroke-linecap:round; stroke-linejoin:round;"
     id="g110" />
  <g
     style="fill:#ffffff;fill-opacity:1;stroke:#ffffff;stroke-width:0;stroke-linecap:round;stroke-linejoin:round;stroke-opacity:1"
     id="g112"
     transform="translate(-35033.899,-26406.801)">
    <polyline
       style="fill-rule:evenodd"
       points="52770,42590 52770,41910 52090,41910 52090,42590 52770,42590 "
       id="polyline114" />
  </g>
  <g
     style="fill:#FFFFFF; fill-opacity:1.0;  stroke:#FFFFFF; stroke-width:680; stroke-opacity:1;  stroke-linecap:round; stroke-linejoin:round;"
     id="g116" />
  <g
     style="fill:#ffffff;fill-opacity:0;stroke:#ffffff;stroke-width:680;stroke-linecap:round;stroke-linejoin:round;stroke-opacity:1"
     id="g118"
     transform="translate(-35033.899,-26406.801)">
    <path
       d="m 51430,42250 0,0"
       id="path120"
       inkscape:connector-curvature="0" />
    <path
       d="m 52430,43250 0,0"
       id="path122"
       inkscape:connector-curvature="0" />
    <path
       d="m 51430,43250 0,0"
       id="path124"
       inkscape:connector-curvature="0" />
    <path
       d="m 52430,44250 0,0"
       id="path126"
       inkscape:connector-curvature="0" />
    <path
       d="m 51430,44250 0,0"
       id="path128"
       inkscape:connector-curvature="0" />
  </g>
  <g
     style="fill:#FFFFFF; fill-opacity:0.0;  stroke:#FFFFFF; stroke-width:0; stroke-opacity:1;  stroke-linecap:round; stroke-linejoin:round;"
     id="g130" />
  <g
     style="fill:#ffffff;fill-opacity:1;stroke:#ffffff;stroke-width:0;stroke-linecap:round;stroke-linejoin:round;stroke-opacity:1"
     id="g132"
     transform="translate(-35033.899,-26406.801)">
    <polyline
       style="fill-rule:evenodd"
       points="58252,44919 58607,44919 58607,44446 58252,44446 58252,44919 "
       id="polyline134" />
    <polyline
       style="fill-rule:evenodd"
       points="58252,44053 58607,44053 58607,43580 58252,43580 58252,44053 "
       id="polyline136" />
    <polyline
       style="fill-rule:evenodd"
       points="58607,41580 58252,41580 58252,42053 58607,42053 58607,41580 "
       id="polyline138" />
    <polyline
       style="fill-rule:evenodd"
       points="58607,42446 58252,42446 58252,42919 58607,42919 58607,42446 "
       id="polyline140" />
    <polyline
       style="fill-rule:evenodd"
       points="54260,44572 54260,44927 54733,44927 54733,44572 54260,44572 "
       id="polyline142" />
    <polyline
       style="fill-rule:evenodd"
       points="55126,44572 55126,44927 55599,44927 55599,44572 55126,44572 "
       id="polyline144" />
    <polyline
       style="fill-rule:evenodd"
       points="54260,41572 54260,41927 54733,41927 54733,41572 54260,41572 "
       id="polyline146" />
    <polyline
       style="fill-rule:evenodd"
       points="55126,41572 55126,41927 55599,41927 55599,41572 55126,41572 "
       id="polyline148" />
    <polyline
       style="fill-rule:evenodd"
       points="54260,42322 54260,42677 54733,42677 54733,42322 54260,42322 "
       id="polyline150" />
    <polyline
       style="fill-rule:evenodd"
       points="55126,42322 55126,42677 55599,42677 55599,42322 55126,42322 "
       id="polyline152" />
    <polyline
       style="fill-rule:evenodd"
       points="54260,43822 54260,44177 54733,44177 54733,43822 54260,43822 "
       id="polyline154" />
    <polyline
       style="fill-rule:evenodd"
       points="55126,43822 55126,44177 55599,44177 55599,43822 55126,43822 "
       id="polyline156" />
    <polyline
       style="fill-rule:evenodd"
       points="43552,41969 43907,41969 43907,41496 43552,41496 43552,41969 "
       id="polyline158" />
    <polyline
       style="fill-rule:evenodd"
       points="43552,41103 43907,41103 43907,40630 43552,40630 43552,41103 "
       id="polyline160" />
    <polyline
       style="fill-rule:evenodd"
       points="44007,45030 43652,45030 43652,45503 44007,45503 44007,45030 "
       id="polyline162" />
    <polyline
       style="fill-rule:evenodd"
       points="44007,45896 43652,45896 43652,46369 44007,46369 44007,45896 "
       id="polyline164" />
    <polyline
       style="fill-rule:evenodd"
       points="63548,42868 63548,42631 62937,42631 62937,42868 63548,42868 "
       id="polyline166" />
    <polyline
       style="fill-rule:evenodd"
       points="63548,43368 63548,43131 62937,43131 62937,43368 63548,43368 "
       id="polyline168" />
    <polyline
       style="fill-rule:evenodd"
       points="63548,43868 63548,43631 62937,43631 62937,43868 63548,43868 "
       id="polyline170" />
    <polyline
       style="fill-rule:evenodd"
       points="63548,44368 63548,44131 62937,44131 62937,44368 63548,44368 "
       id="polyline172" />
    <polyline
       style="fill-rule:evenodd"
       points="61422,44368 61422,44131 60811,44131 60811,44368 61422,44368 "
       id="polyline174" />
    <polyline
       style="fill-rule:evenodd"
       points="61422,43868 61422,43631 60811,43631 60811,43868 61422,43868 "
       id="polyline176" />
    <polyline
       style="fill-rule:evenodd"
       points="61422,43368 61422,43131 60811,43131 60811,43368 61422,43368 "
       id="polyline178" />
    <polyline
       style="fill-rule:evenodd"
       points="61422,42868 61422,42631 60811,42631 60811,42868 61422,42868 "
       id="polyline180" />
  </g>
  <g
     style="fill:#FFFFFF; fill-opacity:1.0;  stroke:#FFFFFF; stroke-width:240; stroke-opacity:1;  stroke-linecap:round; stroke-linejoin:round;"
     id="g182" />
  <g
     style="fill:#ffffff;fill-opacity:0;stroke:#ffffff;stroke-width:240;stroke-linecap:round;stroke-linejoin:round;stroke-opacity:1"
     id="g184"
     transform="translate(-35033.899,-26406.801)">
    <path
       d="m 48000,44050 -340,0"
       id="path186"
       inkscape:connector-curvature="0" />
    <path
       d="m 48000,43550 -340,0"
       id="path188"
       inkscape:connector-curvature="0" />
    <path
       d="m 48000,43050 -340,0"
       id="path190"
       inkscape:connector-curvature="0" />
    <path
       d="m 48000,42550 -340,0"
       id="path192"
       inkscape:connector-curvature="0" />
    <path
       d="m 50200,42550 -340,0"
       id="path194"
       inkscape:connector-curvature="0" />
    <path
       d="m 50200,43050 -340,0"
       id="path196"
       inkscape:connector-curvature="0" />
    <path
       d="m 50200,43550 -340,0"
       id="path198"
       inkscape:connector-curvature="0" />
    <path
       d="m 50200,44050 -340,0"
       id="path200"
       inkscape:connector-curvature="0" />
  </g>
  <g
     style="fill:#ffffff;fill-opacity:0;stroke:#ffffff;stroke-width:600;stroke-linecap:round;stroke-linejoin:round;stroke-opacity:1"
     id="g202"
     transform="translate(-35033.899,-26406.801)">
    <path
       d="m 42189,44866 0,-108"
       id="path204"
       inkscape:connector-curvature="0" />
    <path
       d="m 41796,41559 0,-108"
       id="path206"
       inkscape:connector-curvature="0" />
    <path
       d="m 40024,42111 0,-109"
       id="path208"
       inkscape:connector-curvature="0" />
    <path
       d="m 40024,43685 0,-108"
       id="path210"
       inkscape:connector-curvature="0" />
  </g>
  <g
     style="fill:#ffffff;fill-opacity:1;stroke:#ffffff;stroke-width:0;stroke-linecap:round;stroke-linejoin:round;stroke-opacity:1"
     id="g212"
     transform="translate(-35033.899,-26406.801)">
    <circle
       cx="40930"
       cy="44340.199"
       r="393.70099"
       id="circle214"
       d="m 41323.701,44340.199 c 0,217.435 -176.266,393.701 -393.701,393.701 -217.435,0 -393.701,-176.266 -393.701,-393.701 0,-217.435 176.266,-393.701 393.701,-393.701 217.435,0 393.701,176.266 393.701,393.701 z"
       sodipodi:cx="40930"
       sodipodi:cy="44340.199"
       sodipodi:rx="393.70099"
       sodipodi:ry="393.70099" />
  </g>
  <g
     style="fill:#FFFFFF; fill-opacity:1.0;  stroke:#FFFFFF; stroke-width:39.3701; stroke-opacity:1;  stroke-linecap:round; stroke-linejoin:round;"
     id="g216" />
  <g
     style="fill:#ffffff;fill-opacity:1;stroke:#ffffff;stroke-width:0;stroke-linecap:round;stroke-linejoin:round;stroke-opacity:1"
     id="g218"
     transform="translate(-35033.899,-26406.801)">
    <circle
       cx="40930"
       cy="41584.301"
       r="393.70099"
       id="circle220"
       d="m 41323.701,41584.301 c 0,217.435 -176.266,393.701 -393.701,393.701 -217.435,0 -393.701,-176.266 -393.701,-393.701 0,-217.435 176.266,-393.701 393.701,-393.701 217.435,0 393.701,176.266 393.701,393.701 z"
       sodipodi:cx="40930"
       sodipodi:cy="41584.301"
       sodipodi:rx="393.70099"
       sodipodi:ry="393.70099" />
  </g>
  <g
     style="fill:#FFFFFF; fill-opacity:1.0;  stroke:#FFFFFF; stroke-width:39.3701; stroke-opacity:1;  stroke-linecap:round; stroke-linejoin:round;"
     id="g222" />
  <g
     style="fill:#FFFFFF; fill-opacity:1.0;  stroke:#FFFFFF; stroke-width:600; stroke-opacity:1;  stroke-linecap:round; stroke-linejoin:round;"
     id="g224" />
  <g
     style="fill:#ffffff;fill-opacity:0;stroke:#ffffff;stroke-width:600;stroke-linecap:round;stroke-linejoin:round;stroke-opacity:1"
     id="g226"
     transform="translate(-35033.899,-26406.801)">
    <path
       d="m 40024,44866 0,-108"
       id="path228"
       inkscape:connector-curvature="0" />
  </g>
  <g
     style="fill:#ffffff;fill-opacity:0;stroke:#ffffff;stroke-width:98.42520142;stroke-linecap:round;stroke-linejoin:round;stroke-opacity:1"
     id="g230"
     transform="translate(-35033.899,-26406.801)">
    <path
       d="m 60180,43283 -225,0"
       id="path232"
       inkscape:connector-curvature="0" />
    <path
       d="m 59955,43283 -525,-526"
       id="path234"
       inkscape:connector-curvature="0" />
    <path
       d="m 61117,43250 -904,0"
       id="path236"
       inkscape:connector-curvature="0" />
    <path
       d="m 60213,43250 -33,33"
       id="path238"
       inkscape:connector-curvature="0" />
    <path
       d="m 65680,41250 -2500,0"
       id="path240"
       inkscape:connector-curvature="0" />
    <path
       d="m 61930,43250 -813,0"
       id="path242"
       inkscape:connector-curvature="0" />
    <path
       d="m 62430,42750 -500,500"
       id="path244"
       inkscape:connector-curvature="0" />
    <path
       d="m 62430,42000 0,750"
       id="path246"
       inkscape:connector-curvature="0" />
    <path
       d="m 63180,41250 -750,750"
       id="path248"
       inkscape:connector-curvature="0" />
    <path
       d="m 63530,46250 -12750,0"
       id="path250"
       inkscape:connector-curvature="0" />
    <path
       d="m 49045,46415 0,-615"
       id="path252"
       inkscape:connector-curvature="0" />
    <path
       d="m 49330,46700 -285,-285"
       id="path254"
       inkscape:connector-curvature="0" />
    <path
       d="m 50330,46700 -1000,0"
       id="path256"
       inkscape:connector-curvature="0" />
    <path
       d="m 50780,46250 -450,450"
       id="path258"
       inkscape:connector-curvature="0" />
    <path
       d="m 43730,40866 -3567,0"
       id="path260"
       inkscape:connector-curvature="0" />
    <path
       d="m 39430,44218 594,594"
       id="path262"
       inkscape:connector-curvature="0" />
    <path
       d="m 39430,41600 0,2618"
       id="path264"
       inkscape:connector-curvature="0" />
    <path
       d="m 40163,40866 -733,734"
       id="path266"
       inkscape:connector-curvature="0" />
    <path
       d="m 43830,46133 -2967,0"
       id="path268"
       inkscape:connector-curvature="0" />
    <path
       d="m 40863,46133 -839,-839"
       id="path270"
       inkscape:connector-curvature="0" />
    <path
       d="m 40024,45294 0,-482"
       id="path272"
       inkscape:connector-curvature="0" />
    <path
       d="m 43830,46133 3145,0"
       id="path274"
       inkscape:connector-curvature="0" />
    <path
       d="m 46975,46133 55,54"
       id="path276"
       inkscape:connector-curvature="0" />
    <path
       d="m 43730,40866 933,0"
       id="path278"
       inkscape:connector-curvature="0" />
    <path
       d="m 47930,40700 1115,0"
       id="path280"
       inkscape:connector-curvature="0" />
    <path
       d="m 47630,40400 300,300"
       id="path282"
       inkscape:connector-curvature="0" />
    <path
       d="m 45130,40400 2500,0"
       id="path284"
       inkscape:connector-curvature="0" />
    <path
       d="m 44663,40866 467,-466"
       id="path286"
       inkscape:connector-curvature="0" />
    <path
       d="m 48480,42550 565,565"
       id="path288"
       inkscape:connector-curvature="0" />
    <path
       d="m 49030,43100 15,0"
       id="path290"
       inkscape:connector-curvature="0" />
    <path
       d="m 49045,43115 -15,-15"
       id="path292"
       inkscape:connector-curvature="0" />
    <path
       d="m 49045,45800 0,-2700"
       id="path294"
       inkscape:connector-curvature="0" />
    <path
       d="m 49045,43100 0,-2400"
       id="path296"
       inkscape:connector-curvature="0" />
    <path
       d="m 49045,40700 0,1284"
       id="path298"
       inkscape:connector-curvature="0" />
    <path
       d="m 48480,42550 -650,0"
       id="path300"
       inkscape:connector-curvature="0" />
    <path
       d="m 49045,41984 -565,566"
       id="path302"
       inkscape:connector-curvature="0" />
    <path
       d="m 52430,43250 -1000,0"
       id="path304"
       inkscape:connector-curvature="0" />
    <path
       d="m 53680,43757 0,-7"
       id="path306"
       inkscape:connector-curvature="0" />
    <path
       d="m 53680,43750 -500,-500"
       id="path308"
       inkscape:connector-curvature="0" />
    <path
       d="m 53680,42742 0,8"
       id="path310"
       inkscape:connector-curvature="0" />
    <path
       d="m 53680,42750 -500,500"
       id="path312"
       inkscape:connector-curvature="0" />
    <path
       d="m 53180,43250 -750,0"
       id="path314"
       inkscape:connector-curvature="0" />
    <path
       d="m 54180,43250 0,7"
       id="path316"
       inkscape:connector-curvature="0" />
    <path
       d="m 54180,43257 -500,500"
       id="path318"
       inkscape:connector-curvature="0" />
    <path
       d="m 58430,43250 -4250,0"
       id="path320"
       inkscape:connector-curvature="0" />
    <path
       d="m 54180,43250 7,0"
       id="path322"
       inkscape:connector-curvature="0" />
    <path
       d="m 54187,43250 -507,-508"
       id="path324"
       inkscape:connector-curvature="0" />
    <path
       d="m 58430,43816 -2317,0"
       id="path326"
       inkscape:connector-curvature="0" />
    <path
       d="m 55930,44000 -567,0"
       id="path328"
       inkscape:connector-curvature="0" />
    <path
       d="m 56113,43816 -183,184"
       id="path330"
       inkscape:connector-curvature="0" />
    <path
       d="m 58430,42683 -2317,0"
       id="path332"
       inkscape:connector-curvature="0" />
    <path
       d="m 55930,42500 -567,0"
       id="path334"
       inkscape:connector-curvature="0" />
    <path
       d="m 56113,42683 -183,-183"
       id="path336"
       inkscape:connector-curvature="0" />
    <path
       d="m 59430,43742 -926,0"
       id="path338"
       inkscape:connector-curvature="0" />
    <path
       d="m 58504,43742 -74,74"
       id="path340"
       inkscape:connector-curvature="0" />
    <path
       d="m 60180,43716 -725,0"
       id="path342"
       inkscape:connector-curvature="0" />
    <path
       d="m 59455,43716 -25,26"
       id="path344"
       inkscape:connector-curvature="0" />
    <path
       d="m 61117,43750 -904,0"
       id="path346"
       inkscape:connector-curvature="0" />
    <path
       d="m 60213,43750 -33,-34"
       id="path348"
       inkscape:connector-curvature="0" />
    <path
       d="m 58430,42683 0,567"
       id="path350"
       inkscape:connector-curvature="0" />
    <path
       d="m 58430,43250 0,566"
       id="path352"
       inkscape:connector-curvature="0" />
    <path
       d="m 65680,46250 -2150,0"
       id="path354"
       inkscape:connector-curvature="0" />
    <path
       d="m 63530,46250 -100,0"
       id="path356"
       inkscape:connector-curvature="0" />
    <path
       d="m 62180,43750 -1063,0"
       id="path358"
       inkscape:connector-curvature="0" />
    <path
       d="m 62430,44000 -250,-250"
       id="path360"
       inkscape:connector-curvature="0" />
    <path
       d="m 62430,45250 0,-1250"
       id="path362"
       inkscape:connector-curvature="0" />
    <path
       d="M 63430,46250 62430,45250"
       id="path364"
       inkscape:connector-curvature="0" />
    <path
       d="m 56437,44750 -1074,0"
       id="path366"
       inkscape:connector-curvature="0" />
    <path
       d="m 58430,44683 -941,0"
       id="path368"
       inkscape:connector-curvature="0" />
    <path
       d="m 57489,44683 -67,67"
       id="path370"
       inkscape:connector-curvature="0" />
    <path
       d="m 61117,44250 -937,0"
       id="path372"
       inkscape:connector-curvature="0" />
    <path
       d="m 59746,44683 -1316,0"
       id="path374"
       inkscape:connector-curvature="0" />
    <path
       d="m 60180,44250 -434,433"
       id="path376"
       inkscape:connector-curvature="0" />
    <path
       d="m 56437,41750 -1074,0"
       id="path378"
       inkscape:connector-curvature="0" />
    <path
       d="m 58430,41816 -941,0"
       id="path380"
       inkscape:connector-curvature="0" />
    <path
       d="m 57489,41816 -67,-66"
       id="path382"
       inkscape:connector-curvature="0" />
    <path
       d="m 61117,42750 -687,0"
       id="path384"
       inkscape:connector-curvature="0" />
    <path
       d="m 59746,41816 -1316,0"
       id="path386"
       inkscape:connector-curvature="0" />
    <path
       d="m 60180,42250 -434,-434"
       id="path388"
       inkscape:connector-curvature="0" />
    <path
       d="m 60180,42500 0,-250"
       id="path390"
       inkscape:connector-curvature="0" />
    <path
       d="m 60430,42750 -250,-250"
       id="path392"
       inkscape:connector-curvature="0" />
    <path
       d="m 53680,41757 -758,0"
       id="path394"
       inkscape:connector-curvature="0" />
    <path
       d="m 52922,41757 -492,493"
       id="path396"
       inkscape:connector-curvature="0" />
    <path
       d="m 54496,41750 -809,0"
       id="path398"
       inkscape:connector-curvature="0" />
    <path
       d="m 53687,41750 -7,7"
       id="path400"
       inkscape:connector-curvature="0" />
    <path
       d="m 54496,42500 0,-750"
       id="path402"
       inkscape:connector-curvature="0" />
    <path
       d="m 53680,44742 -758,0"
       id="path404"
       inkscape:connector-curvature="0" />
    <path
       d="m 52922,44742 -492,-492"
       id="path406"
       inkscape:connector-curvature="0" />
    <path
       d="m 54496,44750 -809,0"
       id="path408"
       inkscape:connector-curvature="0" />
    <path
       d="m 53687,44750 -7,-8"
       id="path410"
       inkscape:connector-curvature="0" />
    <path
       d="m 54496,44750 0,-750"
       id="path412"
       inkscape:connector-curvature="0" />
    <path
       d="m 50030,44050 0,1750"
       id="path414"
       inkscape:connector-curvature="0" />
    <path
       d="m 50030,42550 0,-1850"
       id="path416"
       inkscape:connector-curvature="0" />
    <path
       d="m 65680,40250 -15000,0"
       id="path418"
       inkscape:connector-curvature="0" />
    <path
       d="m 47830,46300 0,-2250"
       id="path420"
       inkscape:connector-curvature="0" />
    <path
       d="m 47230,46900 600,-600"
       id="path422"
       inkscape:connector-curvature="0" />
    <path
       d="m 40330,46900 6900,0"
       id="path424"
       inkscape:connector-curvature="0" />
    <path
       d="m 39030,45600 1300,1300"
       id="path426"
       inkscape:connector-curvature="0" />
    <path
       d="m 39030,41600 0,4000"
       id="path428"
       inkscape:connector-curvature="0" />
    <path
       d="m 40530,40100 -1500,1500"
       id="path430"
       inkscape:connector-curvature="0" />
    <path
       d="m 50530,40100 -10000,0"
       id="path432"
       inkscape:connector-curvature="0" />
    <path
       d="m 50680,40250 -150,-150"
       id="path434"
       inkscape:connector-curvature="0" />
    <path
       d="m 47830,44050 -450,0"
       id="path436"
       inkscape:connector-curvature="0" />
    <path
       d="m 47030,44400 0,1000"
       id="path438"
       inkscape:connector-curvature="0" />
    <path
       d="m 47380,44050 -350,350"
       id="path440"
       inkscape:connector-curvature="0" />
    <path
       d="m 43830,44183 -817,0"
       id="path442"
       inkscape:connector-curvature="0" />
    <path
       d="m 42461,43631 -2437,0"
       id="path444"
       inkscape:connector-curvature="0" />
    <path
       d="m 43013,44183 -552,-552"
       id="path446"
       inkscape:connector-curvature="0" />
    <path
       d="m 45045,43700 -215,0"
       id="path448"
       inkscape:connector-curvature="0" />
    <path
       d="m 44830,43700 -484,483"
       id="path450"
       inkscape:connector-curvature="0" />
    <path
       d="m 44346,44183 -516,0"
       id="path452"
       inkscape:connector-curvature="0" />
    <path
       d="m 47830,43550 -550,0"
       id="path454"
       inkscape:connector-curvature="0" />
    <path
       d="m 47130,43700 -1100,0"
       id="path456"
       inkscape:connector-curvature="0" />
    <path
       d="m 47280,43550 -150,150"
       id="path458"
       inkscape:connector-curvature="0" />
    <path
       d="m 43730,42916 -1884,0"
       id="path460"
       inkscape:connector-curvature="0" />
    <path
       d="m 40667,42700 -643,-644"
       id="path462"
       inkscape:connector-curvature="0" />
    <path
       d="m 41630,42700 -963,0"
       id="path464"
       inkscape:connector-curvature="0" />
    <path
       d="m 41846,42916 -216,-216"
       id="path466"
       inkscape:connector-curvature="0" />
    <path
       d="m 46145,41100 0,384"
       id="path468"
       inkscape:connector-curvature="0" />
    <path
       d="m 44713,42916 -983,0"
       id="path470"
       inkscape:connector-curvature="0" />
    <path
       d="m 46145,41484 -1432,1432"
       id="path472"
       inkscape:connector-curvature="0" />
    <path
       d="m 47830,43050 -550,0"
       id="path474"
       inkscape:connector-curvature="0" />
    <path
       d="m 47130,42900 0,-1800"
       id="path476"
       inkscape:connector-curvature="0" />
    <path
       d="m 47280,43050 -150,-150"
       id="path478"
       inkscape:connector-curvature="0" />
    <path
       d="m 43730,41733 0,750"
       id="path480"
       inkscape:connector-curvature="0" />
    <path
       d="m 43830,44616 0,650"
       id="path482"
       inkscape:connector-curvature="0" />
    <path
       d="m 65680,45250 -750,0"
       id="path484"
       inkscape:connector-curvature="0" />
    <path
       d="m 63930,44250 -688,0"
       id="path486"
       inkscape:connector-curvature="0" />
    <path
       d="M 64930,45250 63930,44250"
       id="path488"
       inkscape:connector-curvature="0" />
    <path
       d="m 65680,44250 -1000,0"
       id="path490"
       inkscape:connector-curvature="0" />
    <path
       d="m 64180,43750 -938,0"
       id="path492"
       inkscape:connector-curvature="0" />
    <path
       d="m 64680,44250 -500,-500"
       id="path494"
       inkscape:connector-curvature="0" />
    <path
       d="m 65680,43250 -2438,0"
       id="path496"
       inkscape:connector-curvature="0" />
    <path
       d="m 65680,42250 -1000,0"
       id="path498"
       inkscape:connector-curvature="0" />
    <path
       d="m 64180,42750 -938,0"
       id="path500"
       inkscape:connector-curvature="0" />
    <path
       d="m 64680,42250 -500,500"
       id="path502"
       inkscape:connector-curvature="0" />
    <path
       d="m 51430,42250 -150,0"
       id="path504"
       inkscape:connector-curvature="0" />
    <path
       d="m 51280,42250 -800,800"
       id="path506"
       inkscape:connector-curvature="0" />
    <path
       d="m 50480,43050 -450,0"
       id="path508"
       inkscape:connector-curvature="0" />
    <path
       d="m 51430,42250 -250,0"
       id="path510"
       inkscape:connector-curvature="0" />
    <path
       d="m 51430,44250 -250,0"
       id="path512"
       inkscape:connector-curvature="0" />
    <path
       d="m 51180,44250 -700,-700"
       id="path514"
       inkscape:connector-curvature="0" />
    <path
       d="m 50480,43550 -450,0"
       id="path516"
       inkscape:connector-curvature="0" />
  </g>
  <g
     style="fill:#ffffff;fill-opacity:1;stroke:#ffffff;stroke-width:100;stroke-linecap:round;stroke-linejoin:round;stroke-opacity:1"
     id="g518"
     transform="translate(-35033.899,-26406.801)">
    <polyline
       style="fill-rule:evenodd"
       points="38807,49122 66352,49122 66352,46362 66330,46362 66330,46639 66291,46731 66221,46801 66129,46840 65792,46840 65730,46777 65730,46300 65630,46300 65630,46777 65567,46840 65230,46840 65138,46801 65068,46731 65030,46639 65030,46362 65092,46300 65630,46300 65730,46300 66267,46300 66330,46362 66352,46362 66352,45860 66330,45860 66330,46137 66267,46200 65730,46200 65730,46192 65630,46192 65630,46200 65092,46200 65030,46137 65030,45860 65068,45768 65138,45698 65230,45660 65360,45660 65263,45595 65165,45447 64930,45447 64930,45447 64854,45432 64790,45389 63848,44447 63673,44447 63656,44473 63606,44507 63548,44519 62937,44519 62882,44509 62832,44476 62798,44426 62786,44368 62786,44131 62796,44076 62829,44026 62868,43999 62832,43976 62798,43926 62786,43868 62786,43862 61672,43862 61672,43917 61634,44009 61563,44080 61563,44080 61573,44131 61573,44368 61563,44423 61530,44473 61481,44507 61422,44519 60811,44519 60756,44509 60706,44476 60686,44447 60261,44447 59886,44822 59822,44865 59746,44880 59746,44880 58758,44880 58758,44919 58748,44974 58715,45024 58666,45058 58607,45070 58252,45070 58197,45060 58147,45027 58113,44978 58101,44919 58101,44880 57868,44880 57868,44996 57858,45051 57825,45101 57776,45135 57717,45147 57126,45147 57071,45137 57021,45104 56987,45054 56975,44996 56975,44503 56985,44448 57018,44398 57067,44364 57126,44352 57717,44352 57772,44362 57822,44395 57856,44445 57864,44485 58101,44485 58101,44446 58111,44391 58144,44341 58193,44307 58215,44303 58203,44303 58111,44265 58040,44194 58002,44102 58002,43929 58065,43866 58380,43866 58380,43874 58480,43874 58480,43866 58794,43866 58857,43929 58857,44102 58819,44194 58748,44265 58656,44303 58647,44303 58662,44305 58712,44338 58746,44387 58758,44446 58758,44485 59665,44485 60040,44110 60104,44067 60129,44062 60129,44022 60068,44084 60031,44084 59939,44046 59926,44032 59926,44087 59888,44179 59817,44249 59725,44287 59542,44287 59480,44224 59480,43792 59380,43792 59380,44224 59317,44287 59134,44287 59042,44249 58971,44179 58933,44087 58933,43854 58996,43792 59380,43792 59480,43792 59863,43792 59866,43794 59887,43773 55849,43773 55849,43887 55786,43950 55413,43950 55413,43635 55475,43572 55649,43572 55740,43610 55811,43681 55849,43773 59887,43773 59894,43766 60130,43766 60130,43774 60229,43774 60229,43766 60465,43766 60528,43829 60528,43884 60490,43976 60420,44046 60406,44052 60642,44052 60599,44009 60561,43917 60561,43862 60624,43800 61067,43800 61067,43807 61167,43807 61167,43800 61609,43800 61672,43862 62786,43862 62786,43631 62796,43576 62829,43526 62868,43499 62832,43476 62798,43426 62786,43368 62786,43131 62796,43076 62829,43026 62868,42999 62832,42976 62798,42926 62786,42868 62786,42631 62796,42576 62829,42526 62878,42492 62937,42480 63548,42480 63603,42490 63653,42523 63673,42552 64098,42552 64540,42110 64604,42067 64680,42052 64680,42052 65165,42052 65263,41904 65422,41798 65609,41761 65750,41761 65937,41798 66096,41904 66201,42063 66239,42250 66201,42436 66096,42595 65937,42701 65750,42738 65609,42738 65422,42701 65263,42595 65165,42447 64761,42447 64319,42889 64319,42889 64281,42915 64255,42932 64180,42947 63673,42947 63656,42973 63617,43000 63653,43023 63673,43052 65165,43052 65263,42904 65422,42798 65609,42761 65750,42761 65937,42798 66096,42904 66201,43063 66239,43250 66201,43436 66096,43595 65937,43701 65750,43738 65609,43738 65422,43701 65263,43595 65165,43447 63673,43447 63656,43473 63617,43500 63653,43523 63673,43552 64180,43552 64255,43567 64277,43582 64319,43610 64319,43610 64761,44052 65165,44052 65263,43904 65422,43798 65609,43761 65750,43761 65937,43798 66096,43904 66201,44063 66239,44250 66201,44436 66096,44595 65937,44701 65750,44738 65609,44738 65422,44701 65263,44595 65165,44447 64680,44447 64680,44447 64604,44432 64540,44389 64098,43947 63673,43947 63656,43973 63617,44000 63653,44023 63673,44052 63930,44052 64005,44067 64069,44110 64069,44110 65011,45052 65165,45052 65263,44904 65422,44798 65609,44761 65750,44761 65937,44798 66096,44904 66201,45063 66239,45250 66201,45436 66096,45595 65999,45660 66129,45660 66221,45698 66291,45768 66330,45860 66352,45860 66352,41250 66239,41250 66201,41436 66096,41595 65937,41701 65750,41738 65609,41738 65422,41701 65263,41595 65165,41447 63261,41447 62627,42081 62627,42749 62627,42750 62612,42825 62569,42889 62069,43389 62069,43389 62031,43415 62005,43432 61930,43447 61591,43447 61634,43490 61672,43582 61672,43637 61609,43700 61167,43700 61167,43692 61067,43692 61067,43700 60624,43700 60561,43637 60561,43582 60599,43490 60642,43447 60481,43447 60490,43456 60528,43548 60528,43604 60465,43666 60229,43666 60229,43658 60130,43658 60130,43666 59894,43666 59891,43664 59863,43692 59480,43692 59480,43684 59380,43684 59380,43692 58996,43692 58933,43629 58933,43530 58857,43530 58857,43704 58794,43766 58480,43766 58480,43393 58380,43393 58380,43766 58065,43766 58002,43704 58002,43530 58040,43439 58111,43368 58203,43330 58317,43330 58380,43393 58480,43393 58542,43330 58656,43330 58748,43368 58819,43439 58857,43530 58933,43530 58933,43397 58971,43305 59042,43234 59134,43196 59143,43196 59128,43194 59078,43161 59044,43112 59032,43053 59032,42795 58857,42795 58857,42969 58819,43060 58748,43131 58656,43169 58542,43169 58480,43106 58480,42733 58380,42733 58380,43106 58317,43169 58203,43169 58111,43131 58040,43060 58002,42969 58002,42795 58065,42733 58380,42733 58480,42733 58794,42733 58857,42795 59032,42795 59032,42462 59042,42407 59075,42357 59125,42323 59183,42311 59676,42311 59731,42321 59781,42354 59815,42403 59827,42462 59827,42875 59995,43044 60022,43025 60081,43014 60278,43014 60333,43024 60376,43052 60686,43052 60703,43026 60742,42999 60706,42976 60686,42947 60430,42947 60430,42947 60354,42932 60290,42889 60040,42639 60040,42639 59997,42575 59994,42560 59982,42500 59982,42499 59982,42331 59665,42014 58758,42014 58758,42053 58748,42108 58715,42158 58666,42192 58644,42196 58656,42196 58748,42234 58819,42305 58857,42397 58857,42570 58794,42633 58480,42633 58480,42625 58380,42625 58380,42633 58065,42633 58044,42612 55849,42612 55849,42726 55811,42818 55740,42889 55649,42927 55475,42927 55413,42864 55413,42550 55786,42550 55849,42612 58044,42612 58002,42570 58002,42397 58040,42305 58111,42234 58203,42196 58212,42196 58197,42194 58147,42161 58113,42112 58101,42053 58101,42014 57865,42014 57858,42051 57825,42101 57776,42135 57717,42147 57126,42147 57071,42137 57021,42104 56987,42054 56975,41996 56975,41503 56985,41448 57018,41398 57067,41364 57126,41352 57717,41352 57772,41362 57822,41395 57856,41445 57868,41503 57868,41619 58101,41619 58101,41580 58111,41525 58144,41475 58193,41441 58252,41429 58607,41429 58662,41439 58712,41472 58746,41521 58758,41580 58758,41619 59746,41619 59746,41619 59822,41634 59886,41677 60319,42110 60362,42174 60377,42250 60377,42250 60377,42418 60511,42552 60686,42552 60703,42526 60753,42492 60811,42480 61422,42480 61477,42490 61527,42523 61561,42573 61573,42631 61573,42868 61563,42923 61530,42973 61491,43000 61527,43023 61547,43052 61848,43052 62232,42668 62232,42000 62232,42000 62247,41924 62290,41860 62290,41860 63040,41110 63104,41067 63180,41052 63180,41052 65165,41052 65263,40904 65422,40798 65609,40761 65750,40761 65937,40798 66096,40904 66201,41063 66239,41250 66352,41250 66352,40250 66239,40250 66201,40436 66096,40595 65937,40701 65750,40738 65609,40738 65422,40701 65263,40595 65165,40447 50680,40447 50680,40447 50604,40432 50540,40389 50448,40297 50311,40297 50340,40303 50391,40335 50425,40385 50437,40444 50437,40955 50426,41010 50394,41061 50344,41095 50285,41107 50227,41107 50227,42285 50311,42302 50398,42360 50456,42447 50477,42550 50456,42652 50398,42739 50311,42797 50301,42800 50311,42802 50386,42852 50398,42852 50943,42307 50932,42250 50969,42063 51075,41904 51233,41798 51420,41761 51439,41761 51626,41798 51784,41904 51890,42063 51927,42250 51890,42436 51784,42595 51626,42701 51623,42701 51779,42774 51930,42939 52080,42774 52151,42741 52090,42741 52034,42730 51984,42698 51950,42648 51938,42590 51938,41910 51949,41854 51981,41804 52031,41770 52090,41758 52641,41758 52782,41618 52846,41575 52922,41560 52922,41560 53282,41560 53282,41462 53292,41407 53325,41357 53375,41323 53433,41311 53926,41311 53981,41321 54031,41354 54065,41403 54077,41462 54077,41552 54113,41552 54119,41517 54152,41467 54201,41433 54260,41421 54733,41421 54788,41431 54838,41464 54872,41513 54884,41572 54884,41927 54874,41982 54841,42032 54792,42066 54733,42078 54694,42078 54694,42171 54733,42171 54788,42181 54838,42214 54872,42263 54876,42285 54876,42273 54914,42181 54985,42110 55077,42072 55096,42072 55071,42068 55021,42035 54987,41986 54975,41927 54975,41572 54985,41517 55018,41467 55067,41433 55126,41421 55599,41421 55654,41431 55704,41464 55738,41513 55746,41552 55991,41552 55991,41503 56001,41448 56034,41398 56083,41364 56142,41352 56733,41352 56788,41362 56838,41395 56872,41445 56884,41503 56884,41996 56874,42051 56841,42101 56792,42135 56733,42147 56142,42147 56087,42137 56037,42104 56003,42054 55991,41996 55991,41947 55746,41947 55740,41982 55707,42032 55658,42066 55627,42072 55649,42072 55740,42110 55811,42181 55849,42273 55849,42387 55786,42450 55413,42450 55413,42442 55313,42442 55313,42450 55305,42450 55305,42550 55313,42550 55313,42864 55250,42927 55077,42927 54985,42889 54914,42818 54876,42726 54876,42717 54874,42732 54841,42782 54792,42816 54733,42828 54260,42828 54205,42818 54165,42792 54113,42792 54176,42854 54176,43087 54138,43179 54067,43249 54066,43250 54067,43250 54138,43320 54176,43412 54176,43645 54113,43707 54166,43707 54201,43683 54260,43671 54733,43671 54788,43681 54838,43714 54872,43763 54876,43785 54876,43773 54914,43681 54985,43610 55077,43572 55250,43572 55313,43635 55313,43950 55305,43950 55305,44050 55313,44050 55313,44057 55413,44057 55413,44050 55786,44050 55849,44112 55849,44226 55811,44318 55740,44389 55649,44427 55629,44427 55654,44431 55704,44464 55738,44513 55746,44552 55991,44552 55991,44503 56001,44448 56034,44398 56083,44364 56142,44352 56733,44352 56788,44362 56838,44395 56872,44445 56884,44503 56884,44996 56874,45051 56841,45101 56792,45135 56733,45147 56142,45147 56087,45137 56037,45104 56003,45054 55991,44996 55991,44947 55746,44947 55740,44982 55707,45032 55658,45066 55599,45078 55126,45078 55071,45068 55021,45035 54987,44986 54975,44927 54975,44572 54985,44517 55018,44467 55067,44433 55098,44427 55077,44427 54985,44389 54914,44318 54876,44226 54876,44217 54874,44232 54841,44282 54792,44316 54733,44328 54694,44328 54694,44421 54733,44421 54788,44431 54838,44464 54872,44513 54884,44572 54884,44927 54874,44982 54841,45032 54792,45066 54733,45078 54260,45078 54205,45068 54155,45035 54121,44986 54113,44947 54077,44947 54077,45037 54067,45092 54034,45142 53984,45176 53926,45188 53433,45188 53378,45178 53328,45145 53294,45096 53282,45037 53282,44939 52922,44939 52922,44939 52846,44924 52782,44881 52605,44705 52439,44738 52420,44738 52233,44701 52075,44595 51969,44436 51932,44250 51969,44063 52075,43904 52233,43798 52236,43798 52080,43725 51930,43560 51779,43725 51623,43798 51626,43798 51784,43904 51890,44063 51927,44250 51890,44436 51784,44595 51626,44701 51439,44738 51420,44738 51233,44701 51075,44595 50969,44436 50939,44289 50398,43747 50386,43747 50311,43797 50301,43800 50311,43802 50398,43860 50456,43947 50477,44050 50456,44152 50398,44239 50311,44297 50227,44314 50227,45392 50285,45392 50340,45403 50391,45435 50425,45485 50437,45544 50437,46055 50426,46110 50394,46161 50344,46195 50285,46207 49774,46207 49719,46196 49668,46164 49661,46153 49328,46153 49307,46244 49116,46310 48916,46299 48784,46244 48762,46153 49045,45870 49328,46153 49661,46153 49634,46114 49622,46055 49622,45728 49556,45728 49544,45929 49490,46061 49399,46083 49116,45800 48975,45800 48691,46083 48601,46061 48534,45871 48546,45670 48601,45538 48691,45516 48975,45800 49116,45800 49399,45516 49490,45538 49556,45728 49622,45728 49622,45544 49633,45489 49660,45446 49328,45446 49045,45729 48762,45446 48784,45355 48974,45289 49175,45300 49307,45355 49328,45446 49660,45446 49665,45438 49715,45404 49774,45392 49832,45392 49832,44314 49748,44297 49661,44239 49603,44152 49582,44050 49603,43947 49661,43860 49748,43802 49758,43800 49748,43797 49661,43739 49603,43652 49582,43550 49603,43447 49661,43360 49748,43302 49758,43300 49748,43297 49661,43239 49603,43152 49582,43050 49603,42947 49661,42860 49748,42802 49758,42800 49748,42797 49661,42739 49603,42652 49582,42550 49603,42447 49606,42443 48354,42443 48303,42500 47880,42500 47880,42180 48050,42180 48187,42227 48296,42323 48354,42443 49606,42443 49661,42360 49748,42302 49832,42285 49832,41107 49774,41107 49719,41096 49668,41064 49661,41053 49328,41053 49307,41144 49116,41210 48916,41199 48784,41144 48762,41053 49045,40770 49328,41053 49661,41053 49634,41014 49622,40955 49622,40628 49556,40628 49544,40829 49490,40961 49399,40983 49116,40700 48975,40700 48691,40983 48601,40961 48534,40771 48545,40580 44157,40580 44157,40754 44094,40816 43780,40816 43780,40443 43680,40443 43680,40816 43365,40816 43302,40754 43302,40580 43340,40489 43411,40418 43503,40380 43617,40380 43680,40443 43780,40443 43842,40380 43956,40380 44048,40418 44119,40489 44157,40580 48545,40580 48546,40570 48601,40438 48691,40416 48975,40700 49116,40700 49399,40416 49490,40438 49556,40628 49622,40628 49622,40444 49633,40389 49665,40338 49715,40304 49750,40297 49317,40297 49328,40346 49045,40629 48762,40346 48774,40297 40611,40297 39227,41681 39227,45518 40411,46702 47148,46702 47179,46671 47101,46698 46900,46686 46768,46632 46746,46541 47030,46258 47035,46263 47106,46192 47100,46187 46959,46187 46676,46470 46585,46448 46519,46258 46519,46245 44257,46245 44257,46419 44219,46510 44148,46581 44056,46619 43942,46619 43880,46556 43880,46183 43780,46183 43780,46556 43717,46619 43603,46619 43511,46581 43440,46510 43402,46419 43402,46245 43465,46183 43780,46183 43880,46183 44194,46183 44257,46245 46519,46245 46530,46057 46585,45926 46676,45904 46959,46187 47100,46187 47383,45904 47474,45926 47540,46116 47529,46317 47526,46324 47632,46218 47632,44314 47548,44297 47473,44247 47461,44247 47227,44481 47227,44992 47285,44992 47340,45003 47391,45035 47425,45085 47437,45144 47437,45655 47426,45710 47394,45761 47344,45795 47305,45803 47313,45833 47030,46116 46746,45833 46754,45803 46719,45796 46668,45764 46634,45714 46622,45655 46622,45144 46633,45089 46665,45038 46715,45004 46774,44992 46832,44992 46832,44400 46832,44400 46847,44324 46890,44260 47240,43910 47304,43867 47380,43852 47380,43852 47473,43852 47548,43802 47558,43800 47548,43797 47473,43747 47361,43747 47269,43839 47269,43839 47235,43862 47205,43882 47130,43897 46437,43897 46437,43955 46426,44010 46394,44061 46344,44095 46285,44107 45774,44107 45719,44096 45668,44064 45634,44014 45622,43955 45622,43780 45450,43780 45388,43928 45275,44042 45126,44104 44965,44104 44817,44042 44791,44017 44486,44323 44486,44323 44459,44341 44422,44366 44346,44381 44053,44381 44041,44400 44067,44439 44079,44498 44079,44734 44069,44789 44036,44840 44027,44846 44027,44883 44062,44889 44112,44922 44146,44971 44158,45030 44158,45503 44148,45558 44115,45608 44066,45642 44044,45646 44056,45646 44148,45684 44219,45755 44257,45847 44257,46020 44194,46083 43880,46083 43880,46075 43780,46075 43780,46083 43465,46083 43402,46020 43402,45847 43440,45755 43511,45684 43603,45646 43612,45646 43597,45644 43547,45611 43513,45562 43501,45503 43501,45030 43511,44975 43544,44925 43593,44891 43632,44883 43632,44847 43626,44843 43592,44793 43583,44748 42638,44748 42638,44876 42604,45048 42506,45193 42361,45291 42189,45325 42018,45291 41872,45193 41775,45048 41755,44948 40568,44948 40495,45150 40351,45309 40159,45400 40074,45351 40074,44862 39974,44862 39974,45351 39889,45400 39697,45309 39553,45150 39480,44948 39536,44862 39974,44862 40074,44862 40512,44862 40568,44948 41755,44948 41741,44876 41741,44748 41775,44576 41872,44431 42018,44334 42189,44299 42361,44334 42506,44431 42604,44576 42638,44748 43583,44748 43580,44734 43580,44498 43590,44443 43618,44399 43606,44381 43013,44381 43013,44381 42937,44366 42873,44323 42379,43829 41112,43829 41236,43880 41389,44032 41472,44231 41472,44447 41389,44646 41237,44799 41038,44882 40822,44882 40623,44800 40541,44718 40512,44762 40074,44762 40074,44273 39974,44273 39974,44762 39536,44762 39480,44676 39553,44474 39697,44315 39889,44225 39974,44273 40074,44273 40159,44225 40351,44315 40387,44355 40387,44232 40470,44033 40622,43880 40747,43829 40446,43829 40438,43867 40341,44012 40196,44109 40024,44144 39852,44109 39707,44012 39610,43867 39576,43695 39576,43567 39610,43395 39707,43250 39852,43153 40024,43118 40196,43153 40341,43250 40438,43395 40446,43433 42461,43433 42537,43448 42548,43456 42601,43491 42601,43491 43095,43985 43606,43985 43623,43959 43672,43925 43731,43914 43928,43914 43983,43924 44033,43956 44053,43985 44264,43985 44648,43601 44702,43471 44816,43357 44964,43295 45125,43295 45274,43357 45388,43470 45450,43619 45450,43780 45622,43780 45622,43444 45633,43389 45665,43338 45715,43304 45774,43292 46285,43292 46340,43303 46391,43335 46425,43385 46437,43444 46437,43502 47048,43502 47140,43410 47204,43367 47280,43352 47280,43352 47473,43352 47548,43302 47558,43300 47548,43297 47473,43247 47280,43247 47280,43247 47204,43232 47140,43189 46990,43039 46990,43039 46964,43001 46947,42975 46932,42900 46932,41507 46874,41507 46819,41496 46768,41464 46734,41414 46722,41355 46722,41180 46550,41180 46488,41328 46375,41442 46343,41455 46343,41484 46343,41484 46328,41559 46285,41624 44853,43056 44789,43099 44713,43114 44713,43114 43953,43114 43936,43140 43887,43174 43828,43185 43631,43185 43576,43175 43526,43143 43506,43114 41846,43114 41846,43114 41770,43099 41706,43056 41548,42897 40667,42897 40667,42897 40592,42882 40528,42839 40212,42524 40196,42535 40024,42569 39852,42535 39707,42437 39610,42292 39576,42120 39576,41992 39610,41820 39707,41675 39852,41578 40024,41544 40196,41578 40341,41675 40438,41820 40472,41992 40472,42120 40455,42208 40749,42502 41630,42502 41705,42517 41769,42560 41769,42560 41928,42718 43506,42718 43518,42699 43492,42660 43480,42601 43480,42365 43490,42310 43523,42259 43532,42253 43532,42116 43497,42110 43447,42077 43413,42028 43401,41969 43401,41496 43411,41441 43412,41441 42244,41441 42244,41569 42210,41741 42113,41886 41967,41983 41796,42018 41624,41983 41479,41886 41425,41805 41389,41890 41237,42043 41038,42126 40822,42126 40623,42044 40470,41891 40387,41692 40387,41476 40470,41277 40622,41124 40821,41042 41037,41042 41236,41124 41382,41269 41479,41124 41624,41027 41796,40992 41967,41027 42113,41124 42210,41269 42244,41441 43412,41441 43444,41391 43493,41357 43515,41353 43503,41353 43411,41315 43340,41244 43302,41152 43302,40979 43365,40916 43680,40916 43680,40924 43780,40924 43780,40916 44094,40916 44157,40979 44157,41152 44119,41244 44048,41315 43956,41353 43947,41353 43962,41355 44012,41388 44046,41437 44058,41496 44058,41969 44048,42024 44015,42074 43966,42108 43927,42116 43927,42252 43933,42256 43967,42306 43979,42365 43979,42601 43969,42656 43941,42700 43953,42718 44631,42718 45912,41438 45803,41329 45741,41180 45741,41019 45802,40871 45916,40757 46064,40695 46225,40695 46374,40757 46488,40870 46550,41019 46550,41180 46722,41180 46722,40844 46733,40789 46765,40738 46815,40704 46874,40692 47385,40692 47440,40703 47491,40735 47525,40785 47537,40844 47537,41355 47526,41410 47494,41461 47444,41495 47385,41507 47327,41507 47327,42397 47363,42323 47472,42227 47610,42180 47780,42180 47780,42500 47772,42500 47772,42600 47780,42600 47780,42607 47880,42607 47880,42600 48303,42600 48354,42656 48296,42776 48199,42862 48256,42947 48277,43050 48256,43152 48198,43239 48111,43297 48101,43300 48111,43302 48198,43360 48256,43447 48277,43550 48256,43652 48198,43739 48111,43797 48101,43800 48111,43802 48198,43860 48256,43947 48277,44050 48256,44152 48198,44239 48111,44297 48027,44314 48027,46299 48027,46300 48012,46375 47969,46439 47369,47039 47369,47039 47305,47082 47230,47097 40330,47097 40330,47097 40254,47082 40190,47039 38890,45739 38890,45739 38862,45698 38847,45675 38832,45600 38832,41600 38832,41600 38847,41524 38874,41484 38890,41460 38890,41460 40390,39960 40454,39917 40530,39902 40530,39902 50530,39902 50605,39917 50631,39934 50669,39960 50669,39960 50761,40052 65165,40052 65263,39904 65422,39798 65609,39761 65750,39761 65937,39798 66096,39904 66201,40063 66239,40250 66352,40250 66352,39577 38807,39577 38807,49122 "
       id="polyline520" />
    <polyline
       style="fill-rule:evenodd"
       points="52921,42038 52921,42590 52910,42645 52878,42695 52828,42729 52770,42741 52708,42741 52779,42774 52934,42944 53002,43108 52955,43200 52480,43200 52480,43192 52380,43192 52380,43200 51480,43200 51480,43192 51380,43192 51380,43200 50904,43200 50857,43108 50925,42944 51080,42774 51236,42701 51233,42701 51158,42651 50619,43189 50555,43232 50480,43247 50479,43247 50386,43247 50311,43297 50301,43300 50311,43302 50386,43352 50479,43352 50480,43352 50555,43367 50619,43410 50619,43410 51098,43888 51233,43798 51236,43798 51080,43725 50925,43555 50857,43391 50904,43300 51380,43300 51380,43307 51480,43307 51480,43300 52380,43300 52380,43307 52480,43307 52480,43300 52955,43300 53002,43391 52934,43555 52779,43725 52623,43798 52626,43798 52784,43904 52890,44063 52927,44250 52891,44432 53003,44544 53282,44544 53282,44446 53292,44391 53325,44341 53375,44307 53396,44303 53384,44303 53292,44265 53221,44194 53183,44102 53183,43870 53246,43807 53630,43807 53630,43815 53730,43815 53730,43807 53737,43807 53737,43707 53730,43707 53730,43275 53755,43250 53730,43224 53730,42792 53630,42792 53630,43224 53604,43250 53630,43275 53630,43707 53246,43707 53183,43645 53183,43412 53221,43320 53292,43250 53293,43250 53292,43249 53221,43179 53183,43087 53183,42854 53246,42792 53630,42792 53730,42792 53737,42792 53737,42692 53730,42692 53730,42684 53630,42684 53630,42692 53246,42692 53183,42629 53183,42397 53221,42305 53292,42234 53384,42196 53393,42196 53378,42194 53328,42161 53294,42112 53282,42053 53282,41955 53003,41955 52921,42038 "
       id="polyline522" />
  </g>
  <g
     style="fill:#000000; fill-opacity:1.0;  stroke:#000000; stroke-width:100; stroke-opacity:1;  stroke-linecap:round; stroke-linejoin:round;"
     id="g524" />
  <g
     style="fill:#000000;fill-opacity:1;stroke:#000000;stroke-width:0;stroke-linecap:round;stroke-linejoin:round;stroke-opacity:1"
     id="g526"
     transform="translate(-35033.899,-26406.801)">
    <circle
       cx="49045.699"
       cy="45800"
       r="68.897598"
       id="circle528"
       d="m 49114.597,45800 c 0,38.051 -30.847,68.898 -68.898,68.898 -38.051,0 -68.897,-30.847 -68.897,-68.898 0,-38.051 30.846,-68.898 68.897,-68.898 38.051,0 68.898,30.847 68.898,68.898 z"
       sodipodi:cx="49045.699"
       sodipodi:cy="45800"
       sodipodi:rx="68.897598"
       sodipodi:ry="68.897598" />
  </g>
  <g
     style="fill:#000000; fill-opacity:1.0;  stroke:#000000; stroke-width:39.3701; stroke-opacity:1;  stroke-linecap:round; stroke-linejoin:round;"
     id="g530" />
  <g
     style="fill:#000000;fill-opacity:1;stroke:#000000;stroke-width:0;stroke-linecap:round;stroke-linejoin:round;stroke-opacity:1"
     id="g532"
     transform="translate(-35033.899,-26406.801)">
    <circle
       cx="50030"
       cy="45800"
       r="68.897598"
       id="circle534"
       d="m 50098.898,45800 c 0,38.051 -30.847,68.898 -68.898,68.898 -38.051,0 -68.898,-30.847 -68.898,-68.898 0,-38.051 30.847,-68.898 68.898,-68.898 38.051,0 68.898,30.847 68.898,68.898 z"
       sodipodi:cx="50030"
       sodipodi:cy="45800"
       sodipodi:rx="68.897598"
       sodipodi:ry="68.897598" />
  </g>
  <g
     style="fill:#000000; fill-opacity:1.0;  stroke:#000000; stroke-width:39.3701; stroke-opacity:1;  stroke-linecap:round; stroke-linejoin:round;"
     id="g536" />
  <g
     style="fill:#000000;fill-opacity:1;stroke:#000000;stroke-width:0;stroke-linecap:round;stroke-linejoin:round;stroke-opacity:1"
     id="g538"
     transform="translate(-35033.899,-26406.801)">
    <circle
       cx="49045.699"
       cy="40700"
       r="68.897598"
       id="circle540"
       d="m 49114.597,40700 c 0,38.051 -30.847,68.898 -68.898,68.898 -38.051,0 -68.897,-30.847 -68.897,-68.898 0,-38.051 30.846,-68.898 68.897,-68.898 38.051,0 68.898,30.847 68.898,68.898 z"
       sodipodi:cx="49045.699"
       sodipodi:cy="40700"
       sodipodi:rx="68.897598"
       sodipodi:ry="68.897598" />
  </g>
  <g
     style="fill:#000000; fill-opacity:1.0;  stroke:#000000; stroke-width:39.3701; stroke-opacity:1;  stroke-linecap:round; stroke-linejoin:round;"
     id="g542" />
  <g
     style="fill:#000000;fill-opacity:1;stroke:#000000;stroke-width:0;stroke-linecap:round;stroke-linejoin:round;stroke-opacity:1"
     id="g544"
     transform="translate(-35033.899,-26406.801)">
    <circle
       cx="50030"
       cy="40700"
       r="68.897598"
       id="circle546"
       d="m 50098.898,40700 c 0,38.051 -30.847,68.898 -68.898,68.898 -38.051,0 -68.898,-30.847 -68.898,-68.898 0,-38.051 30.847,-68.898 68.898,-68.898 38.051,0 68.898,30.847 68.898,68.898 z"
       sodipodi:cx="50030"
       sodipodi:cy="40700"
       sodipodi:rx="68.897598"
       sodipodi:ry="68.897598" />
  </g>
  <g
     style="fill:#000000; fill-opacity:1.0;  stroke:#000000; stroke-width:39.3701; stroke-opacity:1;  stroke-linecap:round; stroke-linejoin:round;"
     id="g548" />
  <g
     style="fill:#000000;fill-opacity:1;stroke:#000000;stroke-width:0;stroke-linecap:round;stroke-linejoin:round;stroke-opacity:1"
     id="g550"
     transform="translate(-35033.899,-26406.801)">
    <circle
       cx="47030"
       cy="45400"
       r="68.897598"
       id="circle552"
       d="m 47098.898,45400 c 0,38.051 -30.847,68.898 -68.898,68.898 -38.051,0 -68.898,-30.847 -68.898,-68.898 0,-38.051 30.847,-68.898 68.898,-68.898 38.051,0 68.898,30.847 68.898,68.898 z"
       sodipodi:cx="47030"
       sodipodi:cy="45400"
       sodipodi:rx="68.897598"
       sodipodi:ry="68.897598" />
  </g>
  <g
     style="fill:#000000; fill-opacity:1.0;  stroke:#000000; stroke-width:39.3701; stroke-opacity:1;  stroke-linecap:round; stroke-linejoin:round;"
     id="g554" />
  <g
     style="fill:#000000;fill-opacity:1;stroke:#000000;stroke-width:0;stroke-linecap:round;stroke-linejoin:round;stroke-opacity:1"
     id="g556"
     transform="translate(-35033.899,-26406.801)">
    <circle
       cx="47030"
       cy="46187.398"
       r="68.897598"
       id="circle558"
       d="m 47098.898,46187.398 c 0,38.052 -30.847,68.898 -68.898,68.898 -38.051,0 -68.898,-30.846 -68.898,-68.898 0,-38.051 30.847,-68.897 68.898,-68.897 38.051,0 68.898,30.846 68.898,68.897 z"
       sodipodi:cx="47030"
       sodipodi:cy="46187.398"
       sodipodi:rx="68.897598"
       sodipodi:ry="68.897598" />
  </g>
  <g
     style="fill:#000000; fill-opacity:1.0;  stroke:#000000; stroke-width:39.3701; stroke-opacity:1;  stroke-linecap:round; stroke-linejoin:round;"
     id="g560" />
  <g
     style="fill:#000000;fill-opacity:1;stroke:#000000;stroke-width:0;stroke-linecap:round;stroke-linejoin:round;stroke-opacity:1"
     id="g562"
     transform="translate(-35033.899,-26406.801)">
    <circle
       cx="45045.699"
       cy="43700"
       r="68.897598"
       id="circle564"
       d="m 45114.597,43700 c 0,38.051 -30.847,68.898 -68.898,68.898 -38.051,0 -68.897,-30.847 -68.897,-68.898 0,-38.051 30.846,-68.898 68.897,-68.898 38.051,0 68.898,30.847 68.898,68.898 z"
       sodipodi:cx="45045.699"
       sodipodi:cy="43700"
       sodipodi:rx="68.897598"
       sodipodi:ry="68.897598" />
  </g>
  <g
     style="fill:#000000; fill-opacity:1.0;  stroke:#000000; stroke-width:39.3701; stroke-opacity:1;  stroke-linecap:round; stroke-linejoin:round;"
     id="g566" />
  <g
     style="fill:#000000;fill-opacity:1;stroke:#000000;stroke-width:0;stroke-linecap:round;stroke-linejoin:round;stroke-opacity:1"
     id="g568"
     transform="translate(-35033.899,-26406.801)">
    <circle
       cx="46030"
       cy="43700"
       r="68.897598"
       id="circle570"
       d="m 46098.898,43700 c 0,38.051 -30.847,68.898 -68.898,68.898 -38.051,0 -68.898,-30.847 -68.898,-68.898 0,-38.051 30.847,-68.898 68.898,-68.898 38.051,0 68.898,30.847 68.898,68.898 z"
       sodipodi:cx="46030"
       sodipodi:cy="43700"
       sodipodi:rx="68.897598"
       sodipodi:ry="68.897598" />
  </g>
  <g
     style="fill:#000000; fill-opacity:1.0;  stroke:#000000; stroke-width:39.3701; stroke-opacity:1;  stroke-linecap:round; stroke-linejoin:round;"
     id="g572" />
  <g
     style="fill:#000000;fill-opacity:1;stroke:#000000;stroke-width:0;stroke-linecap:round;stroke-linejoin:round;stroke-opacity:1"
     id="g574"
     transform="translate(-35033.899,-26406.801)">
    <circle
       cx="46145.699"
       cy="41100"
       r="68.897598"
       id="circle576"
       d="m 46214.597,41100 c 0,38.051 -30.847,68.898 -68.898,68.898 -38.051,0 -68.897,-30.847 -68.897,-68.898 0,-38.051 30.846,-68.898 68.897,-68.898 38.051,0 68.898,30.847 68.898,68.898 z"
       sodipodi:cx="46145.699"
       sodipodi:cy="41100"
       sodipodi:rx="68.897598"
       sodipodi:ry="68.897598" />
  </g>
  <g
     style="fill:#000000; fill-opacity:1.0;  stroke:#000000; stroke-width:39.3701; stroke-opacity:1;  stroke-linecap:round; stroke-linejoin:round;"
     id="g578" />
  <g
     style="fill:#000000;fill-opacity:1;stroke:#000000;stroke-width:0;stroke-linecap:round;stroke-linejoin:round;stroke-opacity:1"
     id="g580"
     transform="translate(-35033.899,-26406.801)">
    <circle
       cx="47130"
       cy="41100"
       r="68.897598"
       id="circle582"
       d="m 47198.898,41100 c 0,38.051 -30.847,68.898 -68.898,68.898 -38.051,0 -68.898,-30.847 -68.898,-68.898 0,-38.051 30.847,-68.898 68.898,-68.898 38.051,0 68.898,30.847 68.898,68.898 z"
       sodipodi:cx="47130"
       sodipodi:cy="41100"
       sodipodi:rx="68.897598"
       sodipodi:ry="68.897598" />
  </g>
  <g
     style="fill:#000000; fill-opacity:1.0;  stroke:#000000; stroke-width:39.3701; stroke-opacity:1;  stroke-linecap:round; stroke-linejoin:round;"
     id="g584" />
  <g
     style="fill:#000000;fill-opacity:1;stroke:#000000;stroke-width:0;stroke-linecap:round;stroke-linejoin:round;stroke-opacity:1"
     id="g586"
     transform="translate(-35033.899,-26406.801)">
    <circle
       cx="65680"
       cy="46250"
       r="68.897598"
       id="circle588"
       d="m 65748.898,46250 c 0,38.051 -30.847,68.898 -68.898,68.898 -38.051,0 -68.898,-30.847 -68.898,-68.898 0,-38.051 30.847,-68.898 68.898,-68.898 38.051,0 68.898,30.847 68.898,68.898 z"
       sodipodi:cx="65680"
       sodipodi:cy="46250"
       sodipodi:rx="68.897598"
       sodipodi:ry="68.897598" />
  </g>
  <g
     style="fill:#000000; fill-opacity:1.0;  stroke:#000000; stroke-width:39.3701; stroke-opacity:1;  stroke-linecap:round; stroke-linejoin:round;"
     id="g590" />
  <g
     style="fill:#000000;fill-opacity:1;stroke:#000000;stroke-width:0;stroke-linecap:round;stroke-linejoin:round;stroke-opacity:1"
     id="g592"
     transform="translate(-35033.899,-26406.801)">
    <circle
       cx="65680"
       cy="45250"
       r="68.897598"
       id="circle594"
       d="m 65748.898,45250 c 0,38.051 -30.847,68.898 -68.898,68.898 -38.051,0 -68.898,-30.847 -68.898,-68.898 0,-38.051 30.847,-68.898 68.898,-68.898 38.051,0 68.898,30.847 68.898,68.898 z"
       sodipodi:cx="65680"
       sodipodi:cy="45250"
       sodipodi:rx="68.897598"
       sodipodi:ry="68.897598" />
  </g>
  <g
     style="fill:#000000; fill-opacity:1.0;  stroke:#000000; stroke-width:39.3701; stroke-opacity:1;  stroke-linecap:round; stroke-linejoin:round;"
     id="g596" />
  <g
     style="fill:#000000;fill-opacity:1;stroke:#000000;stroke-width:0;stroke-linecap:round;stroke-linejoin:round;stroke-opacity:1"
     id="g598"
     transform="translate(-35033.899,-26406.801)">
    <circle
       cx="65680"
       cy="44250"
       r="68.897598"
       id="circle600"
       d="m 65748.898,44250 c 0,38.051 -30.847,68.898 -68.898,68.898 -38.051,0 -68.898,-30.847 -68.898,-68.898 0,-38.051 30.847,-68.898 68.898,-68.898 38.051,0 68.898,30.847 68.898,68.898 z"
       sodipodi:cx="65680"
       sodipodi:cy="44250"
       sodipodi:rx="68.897598"
       sodipodi:ry="68.897598" />
  </g>
  <g
     style="fill:#000000; fill-opacity:1.0;  stroke:#000000; stroke-width:39.3701; stroke-opacity:1;  stroke-linecap:round; stroke-linejoin:round;"
     id="g602" />
  <g
     style="fill:#000000;fill-opacity:1;stroke:#000000;stroke-width:0;stroke-linecap:round;stroke-linejoin:round;stroke-opacity:1"
     id="g604"
     transform="translate(-35033.899,-26406.801)">
    <circle
       cx="65680"
       cy="43250"
       r="68.897598"
       id="circle606"
       d="m 65748.898,43250 c 0,38.051 -30.847,68.898 -68.898,68.898 -38.051,0 -68.898,-30.847 -68.898,-68.898 0,-38.051 30.847,-68.898 68.898,-68.898 38.051,0 68.898,30.847 68.898,68.898 z"
       sodipodi:cx="65680"
       sodipodi:cy="43250"
       sodipodi:rx="68.897598"
       sodipodi:ry="68.897598" />
  </g>
  <g
     style="fill:#000000; fill-opacity:1.0;  stroke:#000000; stroke-width:39.3701; stroke-opacity:1;  stroke-linecap:round; stroke-linejoin:round;"
     id="g608" />
  <g
     style="fill:#000000;fill-opacity:1;stroke:#000000;stroke-width:0;stroke-linecap:round;stroke-linejoin:round;stroke-opacity:1"
     id="g610"
     transform="translate(-35033.899,-26406.801)">
    <circle
       cx="65680"
       cy="42250"
       r="68.897598"
       id="circle612"
       d="m 65748.898,42250 c 0,38.051 -30.847,68.898 -68.898,68.898 -38.051,0 -68.898,-30.847 -68.898,-68.898 0,-38.051 30.847,-68.898 68.898,-68.898 38.051,0 68.898,30.847 68.898,68.898 z"
       sodipodi:cx="65680"
       sodipodi:cy="42250"
       sodipodi:rx="68.897598"
       sodipodi:ry="68.897598" />
  </g>
  <g
     style="fill:#000000; fill-opacity:1.0;  stroke:#000000; stroke-width:39.3701; stroke-opacity:1;  stroke-linecap:round; stroke-linejoin:round;"
     id="g614" />
  <g
     style="fill:#000000;fill-opacity:1;stroke:#000000;stroke-width:0;stroke-linecap:round;stroke-linejoin:round;stroke-opacity:1"
     id="g616"
     transform="translate(-35033.899,-26406.801)">
    <circle
       cx="65680"
       cy="41250"
       r="68.897598"
       id="circle618"
       d="m 65748.898,41250 c 0,38.051 -30.847,68.898 -68.898,68.898 -38.051,0 -68.898,-30.847 -68.898,-68.898 0,-38.051 30.847,-68.898 68.898,-68.898 38.051,0 68.898,30.847 68.898,68.898 z"
       sodipodi:cx="65680"
       sodipodi:cy="41250"
       sodipodi:rx="68.897598"
       sodipodi:ry="68.897598" />
  </g>
  <g
     style="fill:#000000; fill-opacity:1.0;  stroke:#000000; stroke-width:39.3701; stroke-opacity:1;  stroke-linecap:round; stroke-linejoin:round;"
     id="g620" />
  <g
     style="fill:#000000;fill-opacity:1;stroke:#000000;stroke-width:0;stroke-linecap:round;stroke-linejoin:round;stroke-opacity:1"
     id="g622"
     transform="translate(-35033.899,-26406.801)">
    <circle
       cx="65680"
       cy="40250"
       r="68.897598"
       id="circle624"
       d="m 65748.898,40250 c 0,38.051 -30.847,68.898 -68.898,68.898 -38.051,0 -68.898,-30.847 -68.898,-68.898 0,-38.051 30.847,-68.898 68.898,-68.898 38.051,0 68.898,30.847 68.898,68.898 z"
       sodipodi:cx="65680"
       sodipodi:cy="40250"
       sodipodi:rx="68.897598"
       sodipodi:ry="68.897598" />
  </g>
  <g
     style="fill:#000000; fill-opacity:1.0;  stroke:#000000; stroke-width:39.3701; stroke-opacity:1;  stroke-linecap:round; stroke-linejoin:round;"
     id="g626" />
  <g
     style="fill:#000000;fill-opacity:1;stroke:#000000;stroke-width:0;stroke-linecap:round;stroke-linejoin:round;stroke-opacity:1"
     id="g628"
     transform="translate(-35033.899,-26406.801)">
    <circle
       cx="52430"
       cy="42250"
       r="68.897598"
       id="circle630"
       d="m 52498.898,42250 c 0,38.051 -30.847,68.898 -68.898,68.898 -38.051,0 -68.898,-30.847 -68.898,-68.898 0,-38.051 30.847,-68.898 68.898,-68.898 38.051,0 68.898,30.847 68.898,68.898 z"
       sodipodi:cx="52430"
       sodipodi:cy="42250"
       sodipodi:rx="68.897598"
       sodipodi:ry="68.897598" />
  </g>
  <g
     style="fill:#000000; fill-opacity:1.0;  stroke:#000000; stroke-width:39.3701; stroke-opacity:1;  stroke-linecap:round; stroke-linejoin:round;"
     id="g632" />
  <g
     style="fill:#000000;fill-opacity:1;stroke:#000000;stroke-width:0;stroke-linecap:round;stroke-linejoin:round;stroke-opacity:1"
     id="g634"
     transform="translate(-35033.899,-26406.801)">
    <circle
       cx="51430"
       cy="42250"
       r="68.897598"
       id="circle636"
       d="m 51498.898,42250 c 0,38.051 -30.847,68.898 -68.898,68.898 -38.051,0 -68.898,-30.847 -68.898,-68.898 0,-38.051 30.847,-68.898 68.898,-68.898 38.051,0 68.898,30.847 68.898,68.898 z"
       sodipodi:cx="51430"
       sodipodi:cy="42250"
       sodipodi:rx="68.897598"
       sodipodi:ry="68.897598" />
  </g>
  <g
     style="fill:#000000; fill-opacity:1.0;  stroke:#000000; stroke-width:39.3701; stroke-opacity:1;  stroke-linecap:round; stroke-linejoin:round;"
     id="g638" />
  <g
     style="fill:#000000;fill-opacity:1;stroke:#000000;stroke-width:0;stroke-linecap:round;stroke-linejoin:round;stroke-opacity:1"
     id="g640"
     transform="translate(-35033.899,-26406.801)">
    <circle
       cx="52430"
       cy="43250"
       r="68.897598"
       id="circle642"
       d="m 52498.898,43250 c 0,38.051 -30.847,68.898 -68.898,68.898 -38.051,0 -68.898,-30.847 -68.898,-68.898 0,-38.051 30.847,-68.898 68.898,-68.898 38.051,0 68.898,30.847 68.898,68.898 z"
       sodipodi:cx="52430"
       sodipodi:cy="43250"
       sodipodi:rx="68.897598"
       sodipodi:ry="68.897598" />
  </g>
  <g
     style="fill:#000000; fill-opacity:1.0;  stroke:#000000; stroke-width:39.3701; stroke-opacity:1;  stroke-linecap:round; stroke-linejoin:round;"
     id="g644" />
  <g
     style="fill:#000000;fill-opacity:1;stroke:#000000;stroke-width:0;stroke-linecap:round;stroke-linejoin:round;stroke-opacity:1"
     id="g646"
     transform="translate(-35033.899,-26406.801)">
    <circle
       cx="51430"
       cy="43250"
       r="68.897598"
       id="circle648"
       d="m 51498.898,43250 c 0,38.051 -30.847,68.898 -68.898,68.898 -38.051,0 -68.898,-30.847 -68.898,-68.898 0,-38.051 30.847,-68.898 68.898,-68.898 38.051,0 68.898,30.847 68.898,68.898 z"
       sodipodi:cx="51430"
       sodipodi:cy="43250"
       sodipodi:rx="68.897598"
       sodipodi:ry="68.897598" />
  </g>
  <g
     style="fill:#000000; fill-opacity:1.0;  stroke:#000000; stroke-width:39.3701; stroke-opacity:1;  stroke-linecap:round; stroke-linejoin:round;"
     id="g650" />
  <g
     style="fill:#000000;fill-opacity:1;stroke:#000000;stroke-width:0;stroke-linecap:round;stroke-linejoin:round;stroke-opacity:1"
     id="g652"
     transform="translate(-35033.899,-26406.801)">
    <circle
       cx="52430"
       cy="44250"
       r="68.897598"
       id="circle654"
       d="m 52498.898,44250 c 0,38.051 -30.847,68.898 -68.898,68.898 -38.051,0 -68.898,-30.847 -68.898,-68.898 0,-38.051 30.847,-68.898 68.898,-68.898 38.051,0 68.898,30.847 68.898,68.898 z"
       sodipodi:cx="52430"
       sodipodi:cy="44250"
       sodipodi:rx="68.897598"
       sodipodi:ry="68.897598" />
  </g>
  <g
     style="fill:#000000; fill-opacity:1.0;  stroke:#000000; stroke-width:39.3701; stroke-opacity:1;  stroke-linecap:round; stroke-linejoin:round;"
     id="g656" />
  <g
     style="fill:#000000;fill-opacity:1;stroke:#000000;stroke-width:0;stroke-linecap:round;stroke-linejoin:round;stroke-opacity:1"
     id="g658"
     transform="translate(-35033.899,-26406.801)">
    <circle
       cx="51430"
       cy="44250"
       r="68.897598"
       id="circle660"
       d="m 51498.898,44250 c 0,38.051 -30.847,68.898 -68.898,68.898 -38.051,0 -68.898,-30.847 -68.898,-68.898 0,-38.051 30.847,-68.898 68.898,-68.898 38.051,0 68.898,30.847 68.898,68.898 z"
       sodipodi:cx="51430"
       sodipodi:cy="44250"
       sodipodi:rx="68.897598"
       sodipodi:ry="68.897598" />
  </g>
  <g
     style="fill:#000000; fill-opacity:1.0;  stroke:#000000; stroke-width:39.3701; stroke-opacity:1;  stroke-linecap:round; stroke-linejoin:round;"
     id="g662" />
  <g
     style="fill:#000000; fill-opacity:1.0;  stroke:#000000; stroke-width:300; stroke-opacity:1;  stroke-linecap:round; stroke-linejoin:round;"
     id="g664" />
  <g
     style="fill:#000000;fill-opacity:0;stroke:#000000;stroke-width:300;stroke-linecap:round;stroke-linejoin:round;stroke-opacity:1"
     id="g666"
     transform="translate(-35033.899,-26406.801)">
    <path
       d="m 42189,44918 0,-212"
       id="path668"
       inkscape:connector-curvature="0" />
    <path
       d="m 41796,41611 0,-212"
       id="path670"
       inkscape:connector-curvature="0" />
    <path
       d="m 40024,42162 0,-212"
       id="path672"
       inkscape:connector-curvature="0" />
    <path
       d="m 40024,43737 0,-212"
       id="path674"
       inkscape:connector-curvature="0" />
  </g>
  <g
     style="fill:#000000;fill-opacity:1;stroke:#000000;stroke-width:0;stroke-linecap:round;stroke-linejoin:round;stroke-opacity:1"
     id="g676"
     transform="translate(-35033.899,-26406.801)">
    <circle
       cx="40930"
       cy="44340.199"
       r="68.897598"
       id="circle678"
       d="m 40998.898,44340.199 c 0,38.051 -30.847,68.898 -68.898,68.898 -38.051,0 -68.898,-30.847 -68.898,-68.898 0,-38.051 30.847,-68.897 68.898,-68.897 38.051,0 68.898,30.846 68.898,68.897 z"
       sodipodi:cx="40930"
       sodipodi:cy="44340.199"
       sodipodi:rx="68.897598"
       sodipodi:ry="68.897598" />
  </g>
  <g
     style="fill:#000000; fill-opacity:1.0;  stroke:#000000; stroke-width:39.3701; stroke-opacity:1;  stroke-linecap:round; stroke-linejoin:round;"
     id="g680" />
  <g
     style="fill:#000000;fill-opacity:1;stroke:#000000;stroke-width:0;stroke-linecap:round;stroke-linejoin:round;stroke-opacity:1"
     id="g682"
     transform="translate(-35033.899,-26406.801)">
    <circle
       cx="40930"
       cy="41584.301"
       r="68.897598"
       id="circle684"
       d="m 40998.898,41584.301 c 0,38.051 -30.847,68.897 -68.898,68.897 -38.051,0 -68.898,-30.846 -68.898,-68.897 0,-38.051 30.847,-68.898 68.898,-68.898 38.051,0 68.898,30.847 68.898,68.898 z"
       sodipodi:cx="40930"
       sodipodi:cy="41584.301"
       sodipodi:rx="68.897598"
       sodipodi:ry="68.897598" />
  </g>
  <g
     style="fill:#000000; fill-opacity:1.0;  stroke:#000000; stroke-width:39.3701; stroke-opacity:1;  stroke-linecap:round; stroke-linejoin:round;"
     id="g686" />
  <g
     style="fill:#000000; fill-opacity:1.0;  stroke:#000000; stroke-width:300; stroke-opacity:1;  stroke-linecap:round; stroke-linejoin:round;"
     id="g688" />
  <g
     style="fill:#000000;fill-opacity:0;stroke:#000000;stroke-width:300;stroke-linecap:round;stroke-linejoin:round;stroke-opacity:1"
     id="g690"
     transform="translate(-35033.899,-26406.801)">
    <path
       d="m 40024,44918 0,-212"
       id="path692"
       inkscape:connector-curvature="0" />
  </g>
  <g
     style="fill:#FFFFFF; fill-opacity:0.0;  stroke:#FFFFFF; stroke-width:300; stroke-opacity:1;  stroke-linecap:round; stroke-linejoin:round;"
     id="g694" />
</svg>
